<svg id="Layer_1" data-name="Layer 1" xmlns="http://www.w3.org/2000/svg" width="1920" height="1080" viewBox="0 0 1920 1080"><defs><style>.cls-1{isolation:isolate;}.cls-2{fill:#ae7b3d;}.cls-3{fill:none;}</style></defs><title>logoyanny</title><g class="cls-1"><path class="cls-2" d="M208.6694,419.5562,116.9341,193.9683H70.49V145.2158h138.18v48.7525H175.2065l60.2911,154.623,59.1377-154.623H257.71V145.2158h135.295v48.7525h-41.54l-138.1806,355.69h-92.6V501.772h54.5219Z"/><path class="cls-2" d="M692.4438,375.7085V424.46H596.6694V390.42q-39.81,38.66-88.8506,38.6553-38.0785,0-66.205-24.8086t-28.126-63.4649q0-38.9436,29.8564-64.6181,29.858-25.6722,71.9746-25.6748,39.2286,0,75.87,23.6553V246.4707q0-21.345-4.0391-32.8862-4.0429-11.5342-18.8955-20.77-14.8608-9.2294-38.8-9.2315-41.2559,0-59.7149,32.8862l-52.5019-13.8466q34.9014-65.1915,120.583-65.1958,31.4385,0,54.377,8.51,22.935,8.5122,34.1845,21.9243a72.0176,72.0176,0,0,1,15.1455,28.9917q3.8936,15.5779,3.8946,49.6177V375.7085ZM591.189,320.6094q-35.4829-27.6943-71.8311-27.6939-22.7914,0-38.0791,13.27-15.2929,13.2716-15.2891,34.3287,0,19.62,13.4141,32.8857,13.4151,13.2729,36.4922,13.27,39.81,0,75.293-33.4639Z"/><path class="cls-2" d="M819.6616,145.2158v33.7515q52.79-38.0787,96.3506-38.0786,27.1128,0,44.8579,12.8374,17.7408,12.8392,23.2217,31.4438,5.4771,18.6064,5.4814,54.3775V375.7085h47.0215V424.46H934.7632V241.855q0-31.73-9.5195-41.396a31.5329,31.5329,0,0,0-23.3663-9.6641q-36.3486,0-82.2158,35.4824V375.7085h48.1748V424.46H715.81V375.7085h49.041v-181.74H715.81V145.2158Z"/><path class="cls-2" d="M1158.332,145.2158v33.7515q52.79-38.0787,96.3506-38.0786,27.1128,0,44.8584,12.8374,17.7408,12.8392,23.2217,31.4438,5.4771,18.6064,5.4814,54.3775V375.7085h47.0215V424.46h-101.832V241.855q0-31.73-9.52-41.396a31.5328,31.5328,0,0,0-23.3662-9.6641q-36.3488,0-82.2159,35.4824V375.7085h48.1748V424.46H1054.4805V375.7085h49.041v-181.74h-49.041V145.2158Z"/><path class="cls-2" d="M1502.7715,419.5562l-91.7354-225.5879h-46.4443V145.2158h138.18v48.7525h-33.4629l60.291,154.623,59.1377-154.623h-36.9248V145.2158h135.2949v48.7525h-41.54l-138.1807,355.69h-92.6006V501.772h54.5225Z"/></g><path class="cls-3" d="M1180.8,369.5c5.7,1.4,11.4,2.8,17.2,3.9,9.3,1.6,20.2,2.8,28.5-2.6,5.4-3.5,10.4,5.2,5,8.6-17.8,11.5-42.6,2.3-61.2-2.1-26.3-6.2-52.9-2.7-79.4-.5,3,6.9,6.1,13.8,9.3,20.5,25.6,1,51.1,4.7,76.8,4.8,6.4,0,6.4,10,0,10-24-.1-47.8-3.3-71.7-4.6,2.9,5.7-5.7,10.8-8.6,5-.9-1.8-1.8-3.6-2.7-5.5-1.3,0-2.6,0-3.9-.1-6.1,0-6.4-9.1-.9-9.9q-6.45-13.65-12-27.6H397.8V809H1538.4V369.5Z"/><g class="cls-1"><path class="cls-2" d="M496.0205,779.9834l-68.043-237.874h-30.955V492.7832H504.0547v49.3262H470.8L519.4,712.5615l48.5322-170.4521H540.2559V492.7832H663.0273v49.3262H635.0889l48.5322,170.4521,48.7236-170.4521H697.3936V492.7832H812.0322v49.3262H775.5684L707.46,779.9834H660.5352L602.2979,575.6748,543.0107,779.9834Z"/><path class="cls-2" d="M1086.6943,648.0586H873.1553q4.7226,39.1143,27.8076,63.335,23.0815,24.23,59.0244,24.2255,52.2012,0,82.6348-46.6992l44.0722,21.5987q-21.5127,37.0692-55.8769,55.0175a153.2444,153.2444,0,0,1-71.8789,17.9493q-58.2378,0-99.5557-40.4239-41.3173-40.4208-41.3164-109.0127,0-65.0829,40.2676-107.1162,40.2655-42.0292,92.4717-42.0293,51.1553,0,92.7353,41.0078Q1085.1162,566.9209,1086.6943,648.0586Zm-51.417-40.2783q-5.2514-29.77-27.8076-53.85-22.5643-24.0792-55.3515-24.0791-29.9062,0-51.1553,21.7441-21.249,21.7457-25.9707,56.1846Z"/><path class="cls-2" d="M1112.666,775.3135V725.9873h45.1211V418.6484H1112.666V369.3232h93.9151V532.77q37.5117-47.8636,92.0781-47.8662,52.4648,0,88.0127,40.1319,35.5444,40.1352,35.5459,105.8027,0,63.044-34.7588,106.0947-34.7622,43.0547-89.0615,43.0508-30.4351,0-55.6143-14.5938-25.185-14.5912-36.2021-32.3974v42.3213Zm95.4893-140.6817q0,44.0757,24.2656,69.9034,24.2607,25.8311,56.0078,25.83,33.312,0,57.4512-27.4355,24.1318-27.4307,24.1338-73.5508,0-44.6558-24.003-69.3193-24.0029-24.6608-56.2705-24.6631-31.7446,0-56.664,25.539Q1208.15,586.4781,1208.1553,634.6318Z"/></g></svg>