<?xml version="1.0" encoding="utf-8"?>
<!-- Generator: Adobe Illustrator 23.0.1, SVG Export Plug-In . SVG Version: 6.00 Build 0)  -->
<svg version="1.1" id="Layer_1" xmlns="http://www.w3.org/2000/svg" xmlns:xlink="http://www.w3.org/1999/xlink" x="0px" y="0px"
	 viewBox="0 0 1920 1080" style="enable-background:new 0 0 1920 1080;" xml:space="preserve">
<style type="text/css">
	.st0{fill:#AE7B3D;}
	.st1{font-family:'Rockwell';}
	.st2{font-size:590.7986px;}
	.st3{fill:none;}
	.st4{font-size:597.749px;}
</style>
<text transform="matrix(1 0 0 1 65.5854 424.4604)" class="st0 st1 st2">yanny</text>
<path class="st3" d="M1180.8,369.5c5.7,1.4,11.4,2.8,17.2,3.9c9.3,1.6,20.2,2.8,28.5-2.6c5.4-3.5,10.4,5.2,5,8.6
	c-17.8,11.5-42.6,2.3-61.2-2.1c-26.3-6.2-52.9-2.7-79.4-0.5c3,6.9,6.1,13.8,9.3,20.5c25.6,1,51.1,4.7,76.8,4.8c6.4,0,6.4,10,0,10
	c-24-0.1-47.8-3.3-71.7-4.6c0,0,0,0,0,0c2.9,5.7-5.7,10.8-8.6,5c-0.9-1.8-1.8-3.6-2.7-5.5c-1.3,0-2.6,0-3.9-0.1
	c-6.1,0-6.4-9.1-0.9-9.9c-4.3-9.1-8.3-18.3-12-27.6H397.8V809h1140.6V369.5H1180.8z"/>
<text transform="matrix(0.8988 0 0 1 397.8096 775.3135)" class="st0 st1 st4">web</text>
</svg>
