<svg id="Layer_1" data-name="Layer 1" xmlns="http://www.w3.org/2000/svg" width="345.0923" height="91.6235" viewBox="0 0 345.0923 91.6235"><defs><style>.cls-1{fill:#ae7b3c;}.cls-2{fill:#4d535b;}</style></defs><title>Yanny Web Logo Final</title><path class="cls-1" d="M250.4441,98.1079l-8.7876,23.0747a45.3407,45.3407,0,0,1-2.8139,6.0645,17.996,17.996,0,0,1-3.1734,4.1748,11.1655,11.1655,0,0,1-3.7768,2.4023,13.0045,13.0045,0,0,1-4.6.7715q-.6687,0-1.2075-.0254t-1.1821-.0771v-4.0606q.5648.0777,1.2334.1416t1.4131.0645a7.14,7.14,0,0,0,2.3-.36,6.1175,6.1175,0,0,0,2.0171-1.1689,10.4142,10.4142,0,0,0,1.8242-2.0938,20.7324,20.7324,0,0,0,1.6963-3.1094L225.0828,98.1079h5.0879l6.5263,17.062,1.3106,4.0088,1.49-4.1113,6.0386-16.96Z" transform="translate(-106.9841 -59.1781)"/><path class="cls-1" d="M273.0047,123.9062l-.1026-3.4687a13.976,13.976,0,0,1-4.2783,3.0059,11.5121,11.5121,0,0,1-4.561.9257,11.1913,11.1913,0,0,1-3.7769-.5654,7.0776,7.0776,0,0,1-2.5825-1.5547,6.0107,6.0107,0,0,1-1.49-2.3252,8.5911,8.5911,0,0,1-.4756-2.9043,7.2049,7.2049,0,0,1,2.8906-6.0761q2.8908-2.1973,8.5439-2.1973h5.3448v-2.2617a4.7838,4.7838,0,0,0-1.4649-3.6612,6.3391,6.3391,0,0,0-4.4712-1.375,19.1289,19.1289,0,0,0-4.3037.4883,30.3411,30.3411,0,0,0-4.3813,1.3877V99.29q.8481-.3083,1.8886-.604t2.1973-.5263q1.1558-.2315,2.4151-.3731a22.9071,22.9071,0,0,1,2.5439-.1411,15.9519,15.9519,0,0,1,4.2144.5142,8.553,8.553,0,0,1,3.1733,1.5669,6.909,6.909,0,0,1,1.9912,2.6464,9.3558,9.3558,0,0,1,.6943,3.752v17.7812Zm-.4878-11.7431h-5.6787a10.9269,10.9269,0,0,0-2.878.334,5.4717,5.4717,0,0,0-1.9785.9511,3.8087,3.8087,0,0,0-1.1435,1.4776,4.8349,4.8349,0,0,0-.3726,1.9394,4.4148,4.4148,0,0,0,.231,1.4268,3.1581,3.1581,0,0,0,.7456,1.207,3.5941,3.5941,0,0,0,1.3359.836,5.7458,5.7458,0,0,0,2.0044.3076,8.4652,8.4652,0,0,0,3.5332-.9375,17.2681,17.2681,0,0,0,4.2012-2.9678Z" transform="translate(-106.9841 -59.1781)"/><path class="cls-1" d="M285.3645,98.1079h3.9824l.18,4.1626a18.6648,18.6648,0,0,1,2.1846-2.2227,11.9758,11.9758,0,0,1,2.0684-1.4257,7.7558,7.7558,0,0,1,2.0683-.7583,10.772,10.772,0,0,1,2.1846-.2183,7.55,7.55,0,0,1,6.0254,2.3516q2.0435,2.3509,2.043,7.0791v16.83h-4.4717V107.4355a7.2792,7.2792,0,0,0-1.13-4.4843,4.007,4.007,0,0,0-3.3662-1.4512,5.3587,5.3587,0,0,0-1.6065.2441,5.8509,5.8509,0,0,0-1.6308.8477,13.4752,13.4752,0,0,0-1.8379,1.6318q-.9888,1.0284-2.2227,2.5694v17.1132h-4.4707Z" transform="translate(-106.9841 -59.1781)"/><path class="cls-1" d="M314.2971,98.1079H318.28l.18,4.1626a18.6646,18.6646,0,0,1,2.1845-2.2227,11.9758,11.9758,0,0,1,2.0684-1.4257,7.7558,7.7558,0,0,1,2.0683-.7583,10.772,10.772,0,0,1,2.1846-.2183,7.55,7.55,0,0,1,6.0254,2.3516q2.0435,2.3509,2.043,7.0791v16.83h-4.4717V107.4355a7.2792,7.2792,0,0,0-1.13-4.4843,4.007,4.007,0,0,0-3.3662-1.4512,5.3576,5.3576,0,0,0-1.6064.2441,5.85,5.85,0,0,0-1.6309.8477,13.4812,13.4812,0,0,0-1.8379,1.6318q-.9888,1.0284-2.2227,2.5694v17.1132h-4.4707Z" transform="translate(-106.9841 -59.1781)"/><path class="cls-1" d="M366.177,98.1079l-8.7881,23.0747a45.3431,45.3431,0,0,1-2.8134,6.0645,17.9971,17.9971,0,0,1-3.1739,4.1748,11.1675,11.1675,0,0,1-3.7773,2.4023,12.9981,12.9981,0,0,1-4.6.7715q-.6679,0-1.207-.0254-.5406-.0264-1.1827-.0771v-4.0606q.5655.0777,1.2334.1416t1.4141.0645a7.1338,7.1338,0,0,0,2.2988-.36,6.1136,6.1136,0,0,0,2.0176-1.1689,10.3986,10.3986,0,0,0,1.8242-2.0938,20.7684,20.7684,0,0,0,1.6963-3.1094L340.8157,98.1079h5.0869L352.43,115.17l1.31,4.0088,1.49-4.1113,6.0381-16.96Z" transform="translate(-106.9841 -59.1781)"/><path class="cls-1" d="M395.8284,90.3223l-2.2607,33.5839h-5.9356L383.469,111.958l-1.1562-3.8291-1.2071,4.1377-3.8545,11.64h-5.73l-2.3125-33.5839h4.3164l1.31,22.8437.3858,6.27,1.6191-5.3193,4.06-12.4619h3.16l4.6768,13.3613,1.5674,4.42.1035-4.625,1.3359-24.4882Z" transform="translate(-106.9841 -59.1781)"/><path class="cls-1" d="M422.887,109.6455q0,.9507-.0264,1.5928-.0249.6431-.0771,1.208H404.6682a8.0286,8.0286,0,0,0,2.21,6.0771q2.21,2.12,6.373,2.1192,1.13,0,2.2608-.09t2.1846-.2441q1.0532-.1539,2.0166-.3467t1.7861-.4238v3.6748a31.1777,31.1777,0,0,1-4.124.8349,34.4738,34.4738,0,0,1-4.7666.3213,16.2131,16.2131,0,0,1-5.7051-.8994,9.7547,9.7547,0,0,1-3.918-2.6084,10.7318,10.7318,0,0,1-2.2617-4.1885,19.8142,19.8142,0,0,1-.7314-5.6142,16.6779,16.6779,0,0,1,.7832-5.1524,12.935,12.935,0,0,1,2.2871-4.2646,10.8375,10.8375,0,0,1,8.6465-3.9961,12.5848,12.5848,0,0,1,4.7792.8481,9.5777,9.5777,0,0,1,3.5069,2.4029,10.2359,10.2359,0,0,1,2.1592,3.7763A15.8424,15.8424,0,0,1,422.887,109.6455Zm-4.6514-.6426a9.7493,9.7493,0,0,0-.334-3.1474,6.6388,6.6388,0,0,0-1.2714-2.4541,5.9491,5.9491,0,0,0-2.1456-1.6065,7.2168,7.2168,0,0,0-2.9814-.5781,6.2345,6.2345,0,0,0-2.6719.5654,6.0832,6.0832,0,0,0-2.081,1.5938,8.2158,8.2158,0,0,0-1.4141,2.4668,11.3943,11.3943,0,0,0-.668,3.16Z" transform="translate(-106.9841 -59.1781)"/><path class="cls-1" d="M452.0764,110.5449a17.31,17.31,0,0,1-.8867,5.7422,12.105,12.105,0,0,1-2.5185,4.292,10.8322,10.8322,0,0,1-3.97,2.6973,14.03,14.03,0,0,1-5.2675.9384,25.9186,25.9186,0,0,1-4.6768-.4375,23.9582,23.9582,0,0,1-4.7275-1.3867V87.5986H434.5v9.9956l-.2051,4.7788a11.6027,11.6027,0,0,1,4.124-3.6611,10.6628,10.6628,0,0,1,4.7149-1.0664,7.8755,7.8755,0,0,1,3.88.9253,8.0539,8.0539,0,0,1,2.8008,2.6079,12.34,12.34,0,0,1,1.6963,4.06A23.0213,23.0213,0,0,1,452.0764,110.5449Zm-4.5742.2051a21.8428,21.8428,0,0,0-.2949-3.7256,9.7349,9.7349,0,0,0-.9385-2.9033,5.1449,5.1449,0,0,0-1.6445-1.8887,4.1488,4.1488,0,0,0-2.39-.6816,5.8174,5.8174,0,0,0-1.7216.27,6.9716,6.9716,0,0,0-1.8116.8994,13.5812,13.5812,0,0,0-1.9785,1.67,26.4021,26.4021,0,0,0-2.2226,2.582v12.5137a17.3456,17.3456,0,0,0,2.6728.81,12.22,12.22,0,0,0,2.5947.2959,8.879,8.879,0,0,0,2.9424-.4883,6.0686,6.0686,0,0,0,2.4668-1.6318,8.1767,8.1767,0,0,0,1.6963-3.0323A15.0206,15.0206,0,0,0,447.5022,110.75Z" transform="translate(-106.9841 -59.1781)"/><path class="cls-1" d="M156.6407,59.1781c1.0914.8185-15.8246,44.7455-15.8246,44.7455l18.553,7.9123,3.5469,36.8332,12.8234-46.3825-17.4617-6.0025Z" transform="translate(-106.9841 -59.1781)"/><polygon class="cls-2" points="21.827 0 39.289 6.548 24.828 50.475 46.11 57.842 46.11 79.396 0 63.026 21.827 0"/><polygon class="cls-2" points="81.569 91.623 64.107 85.075 78.568 41.148 57.286 33.782 57.286 12.227 103.396 28.598 81.569 91.623"/></svg>